# xmcd
#
# Track frame offsets: 
#        150
#        24788
#        46384
#        78462
#        98757
#        127005
#        163809
#        192530
#        217851
#        241372
#        269295
#
# Disc length: 3981 seconds
#
# Revision: 0
# Processed by: cddbd v1.5.2PL0 Copyright (c) Steve Scherf et al.
# Submitted via: ExactAudioCopy v0.99pb3
#
DISCID=910f8b0b
DTITLE=Mick Martin and The Blues Rockers - Live At Constable Jack's
DYEAR=2004
DGENRE=Blues
TTITLE0=I Bought It For You
TTITLE1=Been Burned
TTITLE2=Can't Stop Thinkin' (About Your Love)
TTITLE3=Tougher Than Love
TTITLE4=What's Goin' On
TTITLE5=High-Heel Baby
TTITLE6=Rock Me (With Dana Moret)
TTITLE7=The Way Of The World
TTITLE8=Stop Breakin' My Heart
TTITLE9=In One Ear
TTITLE10=Got To Play The Blues
EXTD=
EXTT0=
EXTT1=
EXTT2=
EXTT3=
EXTT4=
EXTT5=
EXTT6=
EXTT7=
EXTT8=
EXTT9=
EXTT10=
PLAYORDER=
